<?xml version="1.0" encoding="UTF-8"?> <!-- Generator: Adobe Illustrator 19.0.0, SVG Export Plug-In . SVG Version: 6.00 Build 0) --> <svg xmlns="http://www.w3.org/2000/svg" xmlns:xlink="http://www.w3.org/1999/xlink" version="1.1" id="Capa_1" x="0px" y="0px" viewBox="0 0 511.999 511.999" style="enable-background:new 0 0 511.999 511.999;" fill="#9BCBE3" xml:space="preserve"> <g> <g> <path d="M453.276,204.123H348.233c-4.143,0-7.5,3.357-7.5,7.5c0,4.143,3.357,7.5,7.5,7.5h105.043c4.143,0,7.5-3.357,7.5-7.5 C460.776,207.48,457.419,204.123,453.276,204.123z"></path> </g> </g> <g> <g> <path d="M113.956,198.917c-13.385,0-24.274,10.888-24.274,24.274c0,13.385,10.889,24.274,24.274,24.274 s24.274-10.889,24.274-24.274S127.34,198.917,113.956,198.917z M113.957,232.464c-5.113,0-9.273-4.16-9.273-9.273 s4.16-9.273,9.273-9.273s9.273,4.159,9.273,9.273C123.23,228.304,119.07,232.464,113.957,232.464z"></path> </g> </g> <g> <g> <path d="M222.07,166.005c-15.906,0-28.845,12.94-28.845,28.845c0,15.905,12.94,28.845,28.845,28.845 c15.906,0,28.845-12.94,28.845-28.845S237.975,166.005,222.07,166.005z M222.069,208.694c-7.634,0-13.845-6.21-13.845-13.845 s6.21-13.845,13.845-13.845s13.845,6.21,13.845,13.845S229.703,208.694,222.069,208.694z"></path> </g> </g> <g> <g> <circle cx="153.024" cy="139.055" r="10.645"></circle> </g> </g> <g> <g> <path d="M437.201,376.433h-72.894c-4.143,0-7.5,3.357-7.5,7.5c0,4.143,3.357,7.5,7.5,7.5h72.894c4.143,0,7.5-3.357,7.5-7.5 C444.702,379.79,441.343,376.433,437.201,376.433z"></path> </g> </g> <g> <g> <path d="M426.071,309.47l-15.129-21.146c-2.346-3.28-6.154-5.239-10.188-5.239c-4.034,0-7.842,1.959-10.188,5.239l-15.128,21.146 c-10.129,14.159-7.289,34.087,6.332,44.427c5.577,4.232,12.243,6.362,18.246,6.471c0.188,0.005,0.414,0.015,0.702,0.015 c0.188,0,0.318,0,0.66-0.011c0.1-0.003,0.25-0.007,0.297-0.009C427.363,359.382,440.818,330.085,426.071,309.47z M410.668,341.948 c-0.001,0-0.001,0-0.001,0.001c-14.972,11.361-34.474-7.749-23.029-23.75l13.116-18.334L413.87,318.2 C419.321,325.819,417.885,336.472,410.668,341.948z"></path> </g> </g> <g> <g> <path d="M437.201,404.006h-72.894c-4.143,0-7.5,3.357-7.5,7.5c0,4.143,3.357,7.5,7.5,7.5h72.894c4.143,0,7.5-3.357,7.5-7.5 C444.702,407.363,441.343,404.006,437.201,404.006z"></path> </g> </g> <g> <g> <path d="M458.778,155.569c4.288-13.538-5.886-27.328-20.022-27.328h-5.5v-27.972c0-9.92-4.472-18.811-11.5-24.777v-33.49h23.085 c11.579,0,21.001-9.421,21.001-21.001C465.841,9.421,456.42,0,444.841,0h-66.529c-36.51,0-50.297,29.832-56.845,35.847 c-7.271,9.045-5.835,22.254,3.215,29.524c6.269,5.039,13.248,4.648,13.148,4.631c6.4-0.001,12.369-2.86,16.377-7.846l11.241-13.99 c3.147-3.918,7.836-6.165,12.862-6.165h1.442v33.49c-7.028,5.966-11.5,14.857-11.5,24.777v27.972h-5.5 c-11.579,0-21.001,9.421-21.001,21.001c0,2.205,0.346,4.329,0.979,6.327c-29.837,3.12-53.174,28.418-53.174,59.068v12.807 c0,4.143,3.357,7.5,7.5,7.5c4.143,0,7.5-3.357,7.5-7.5v-12.807c0-24.48,19.916-44.396,44.396-44.396c10.901,0,90.04,0,103.605,0 c24.48,0,44.396,19.916,44.396,44.396v237.955c0,24.48-19.916,44.396-44.396,44.396H348.953c-11.821,0-22.976-4.713-31.227-12.927 c8.565-4.453,15.45-11.019,20.254-18.613c0.835,0.039,82.581,0.021,124.752,0.025c9.388,0,17.026-7.638,17.026-17.026v-19.441 c0-4.143-3.357-7.5-7.5-7.5c-4.143,0-7.5,3.357-7.5,7.5v19.44c0,1.117-0.908,2.025-2.025,2.025H344.526 c4.096-15.353,0.846-31.462-7.773-43.923V249.491c0-1.117,0.908-2.026,2.025-2.026h123.954c1.117,0,2.025,0.909,2.025,2.026 v144.515c0,4.143,3.357,7.5,7.5,7.5c4.143,0,7.5-3.357,7.5-7.5V249.491c0-9.389-7.638-17.027-17.026-17.027H338.777 c-9.388,0-17.026,7.638-17.026,17.027v142.602c-5.254-3.357-11.075-5.767-17.194-7.106V262.445c0-4.143-3.357-7.5-7.5-7.5 c-4.143,0-7.5,3.357-7.5,7.5v89.839c-8.117-22.792-30.058-36.688-53.228-35.229c4.908-35.771-23.948-63.888-57.657-78.346 c-4.978-2.135-10.608-1.554-15.061,1.559c-4.404,3.078-6.859,8.101-6.569,13.439c0.827,15.15-15.355,14.536-31.939,36.032 c-6.942,8.999-10.36,18.326-10.23,27.854c-37.207-5.84-69.539,28.677-59.486,66.238c-22.108-0.954-43.173,12.029-51.684,33.566 c-11.07,28.016,4.033,59.242,31.34,69.532c15.277,5.756,31.164,10.613,47.221,14.437c4.027,0.962,8.073-1.529,9.033-5.559 s-1.529-8.074-5.559-9.033c-15.442-3.677-30.719-8.347-45.406-13.882c-9.698-3.653-17.694-11.242-21.938-20.82 c-13.461-30.384,15.72-61.741,46.855-51.292c2.978,1.001,6.266,0.038,8.234-2.412s2.2-5.868,0.581-8.562 c-18.476-30.731,11.816-67.148,45.051-55.761c0.923,0.315,1.849,0.619,2.777,0.919c5.862,1.893,11.365-3.707,9.417-9.519 c-6.534-19.514,10.724-33.836,27.432-45.741c9.283-6.615,13.877-15.888,13.281-26.813c-0.005-0.085-0.011-0.191,0.184-0.327 c0.272-0.189,0.477-0.102,0.555-0.068c31.286,13.422,57.591,39.93,46.523,71.445c-2.027,5.771,3.366,11.436,9.239,9.667 c33.442-10.079,61.537,26.452,43.658,56.198c-3.581,5.96,2.216,13.193,8.817,10.974c31.286-10.514,61.22,21.65,46.435,52.805 c-4.264,8.808-11.604,15.548-20.793,19.031c-1.069,0.405-2.145,0.783-3.217,1.178l-0.421,0.153 c-0.007,0.002-0.012,0.006-0.019,0.008c-41.586,15.279-85.249,23.045-129.861,23.045c-17.878,0-35.932-1.284-53.663-3.817 c-4.088-0.575-7.899,2.264-8.485,6.364c-0.586,4.1,2.264,7.899,6.364,8.485c18.432,2.633,37.199,3.968,55.784,3.968 c44.495,0,88.092-7.418,129.746-22.049c11.263,13.897,28.088,22.037,46.085,22.037h103.605 c32.749,0.002,59.394-26.643,59.394-59.394V214.637C511.953,183.987,488.616,158.689,458.778,155.569z M378.311,27.001 c-9.595,0-18.546,4.289-24.557,11.769c-10.62,12.232-11.088,16.232-15.927,16.232c-0.001,0-0.002,0-0.003,0 c-5.895-0.567-7.422-6.331-4.665-9.758l11.241-13.99c8.3-10.329,20.66-16.254,33.91-16.254h66.529c3.309,0,6,2.691,6,6 c0,3.309-2.691,6-6,6h-30.585C402.592,27.001,388.698,27.001,378.311,27.001z M406.184,83.641 c0.566,0.185,1.148,0.413,1.528,0.578c6.196,2.697,10.542,8.872,10.542,16.05v27.972h-35.001v-27.972 C383.253,88.453,394.852,79.937,406.184,83.641z M394.754,68.323V42.002h12v26.321C402.854,67.59,398.655,67.59,394.754,68.323z M438.755,155.241h-76.003c-3.309,0-6-2.691-6-6s2.691-6,6-6c17.594,0,59.401,0,76.003,0c3.309,0,6,2.691,6,6 S442.064,155.241,438.755,155.241z"></path> </g> </g> <g> </g> <g> </g> <g> </g> <g> </g> <g> </g> <g> </g> <g> </g> <g> </g> <g> </g> <g> </g> <g> </g> <g> </g> <g> </g> <g> </g> <g> </g> </svg> 