<?xml version="1.0" encoding="UTF-8"?> <!-- Generator: Adobe Illustrator 19.0.0, SVG Export Plug-In . SVG Version: 6.00 Build 0) --> <svg xmlns="http://www.w3.org/2000/svg" xmlns:xlink="http://www.w3.org/1999/xlink" version="1.1" id="Layer_1" x="0px" y="0px" viewBox="0 0 512 512" style="enable-background:new 0 0 512 512;" fill="#9BCBE3" xml:space="preserve"> <g> <g> <path d="M345.871,0H86.115c-4.662,0-8.44,3.779-8.44,8.44v42.581c0,0.192,0.016,0.381,0.029,0.571 c0.006,0.08,0.005,0.159,0.012,0.239c0.03,0.318,0.078,0.63,0.142,0.937l65.09,313.339c0.02,0.096,0.041,0.191,0.064,0.286 c3.79,15.514,14.991,27.721,29.558,33.583l6.853,89.593c0.005,0.049,0.009,0.097,0.013,0.145 C180.631,502.418,190.818,512,203.137,512h25.715c12.317,0,22.505-9.581,23.699-22.286c0.004-0.048,0.009-0.097,0.013-0.145 l6.853-89.593c14.568-5.86,25.769-18.067,29.558-33.583c0.022-0.095,0.044-0.19,0.064-0.286l65.09-313.34 c0.063-0.307,0.11-0.62,0.141-0.937c0.008-0.08,0.007-0.159,0.011-0.239c0.013-0.189,0.029-0.378,0.029-0.571V8.44 C354.311,3.779,350.533,0,345.871,0z M235.738,488.197c-0.398,3.952-3.35,6.924-6.888,6.924h-25.715 c-3.539,0-6.491-2.972-6.888-6.924l-6.462-84.48c0.039,0.002,0.078,0.001,0.117,0.003c0.811,0.036,1.626,0.06,2.446,0.06h47.287 c0.82,0,1.635-0.023,2.446-0.06c0.041-0.002,0.08-0.001,0.118-0.003L235.738,488.197z M337.432,42.582H157.181 c-4.662,0-8.44,3.779-8.44,8.44s3.778,8.44,8.44,8.44h178.319l-62.956,303.06c-2.824,11.345-11.859,19.956-23.324,23.082 c-0.011,0.003-0.023,0.003-0.033,0.007c-0.697,0.191-1.4,0.354-2.105,0.504c-0.185,0.038-0.369,0.075-0.555,0.111 c-0.581,0.114-1.165,0.213-1.751,0.297c-0.402,0.056-0.807,0.101-1.212,0.144c-0.426,0.047-0.853,0.098-1.282,0.129 c-0.874,0.063-1.755,0.105-2.646,0.105H192.35c-0.891,0-1.771-0.042-2.646-0.105c-0.429-0.031-0.855-0.083-1.282-0.129 c-0.406-0.044-0.811-0.088-1.212-0.144c-0.586-0.084-1.169-0.183-1.751-0.297c-0.186-0.036-0.37-0.073-0.555-0.111 c-0.706-0.15-1.409-0.313-2.105-0.504c-0.011-0.003-0.023-0.004-0.033-0.007c-11.464-3.127-20.498-11.738-23.324-23.082 L96.488,59.461h26.935c4.662,0,8.44-3.779,8.44-8.44s-3.778-8.44-8.44-8.44H94.555V16.879h242.877V42.582z"></path> </g> </g> <g> <g> <path d="M278.813,109.871H153.174c-4.661,0-8.44,3.779-8.44,8.44v92.679c0,4.661,3.778,8.44,8.44,8.44h68.709 c4.662,0,8.44-3.779,8.44-8.44s-3.778-8.44-8.44-8.44h-60.27v-75.8h108.76v75.8H255.64c-4.662,0-8.44,3.779-8.44,8.44 s3.778,8.44,8.44,8.44h23.173c4.662,0,8.44-3.779,8.44-8.44V118.31C287.252,113.649,283.475,109.871,278.813,109.871z"></path> </g> </g> <g> <g> <path d="M425.885,341.307h-104.18c-4.662,0-8.44,3.779-8.44,8.44v131.308c0,17.064,13.883,30.945,30.945,30.945h59.169 c17.063,0,30.945-13.881,30.945-30.945V349.747C434.324,345.086,430.546,341.307,425.885,341.307z M417.445,481.055 c0,7.756-6.309,14.066-14.066,14.066H344.21c-7.757,0-14.066-6.309-14.066-14.066V358.186h87.301V481.055z"></path> </g> </g> <g> </g> <g> </g> <g> </g> <g> </g> <g> </g> <g> </g> <g> </g> <g> </g> <g> </g> <g> </g> <g> </g> <g> </g> <g> </g> <g> </g> <g> </g> </svg> 